<svg width="55" height="55" viewBox="0 0 55 55" fill="none" xmlns="http://www.w3.org/2000/svg">
<g clip-path="url(#clip0_1_34)">
<path d="M51.5625 12.0312H13.75C12.8383 12.0313 11.964 12.3934 11.3193 13.0381C10.6747 13.6827 10.3125 14.5571 10.3125 15.4687V29.3734C9.75407 29.2161 9.1713 29.1636 8.59375 29.2187V24.0625C8.59375 23.1508 8.23159 22.2765 7.58693 21.6318C6.94227 20.9872 6.06793 20.625 5.15625 20.625C4.24457 20.625 3.37023 20.9872 2.72557 21.6318C2.08091 22.2765 1.71875 23.1508 1.71875 24.0625V36.9531C1.71875 37.6369 1.99037 38.2926 2.47387 38.7761C2.95736 39.2596 3.61311 39.5312 4.29688 39.5312C6.30335 39.6039 8.31241 39.5523 10.3125 39.3766C10.2916 39.8408 10.365 40.3045 10.5284 40.7396C10.6918 41.1747 10.9416 41.5721 11.263 41.9079C11.5843 42.2436 11.9703 42.5108 12.3978 42.6931C12.8253 42.8754 13.2853 42.9692 13.75 42.9687H23.9422C26.0563 42.9687 26.675 44.2062 29.0984 47.9016C29.4888 48.4901 30.0188 48.9729 30.6411 49.3068C31.2634 49.6408 31.9586 49.8156 32.6648 49.8156C33.3711 49.8156 34.0663 49.6408 34.6886 49.3068C35.3109 48.9729 35.8409 48.4901 36.2312 47.9016L38.5344 44.4641C39.8234 42.5219 40.9063 42.9687 51.5625 42.9687C52.4742 42.9687 53.3485 42.6066 53.9932 41.9619C54.6378 41.3173 55 40.4429 55 39.5312V15.4687C55 14.5571 54.6378 13.6827 53.9932 13.0381C53.3485 12.3934 52.4742 12.0313 51.5625 12.0312Z" fill="#FFF27B"/>
<path d="M27.5 49.8438C27.2169 49.8423 26.9386 49.7709 26.6897 49.636C26.4408 49.5011 26.2291 49.3067 26.0734 49.0703L20.2125 40.2875C20.0548 40.0543 19.8423 39.8633 19.5935 39.7314C19.3448 39.5996 19.0675 39.5308 18.7859 39.5313H17.1875C16.7317 39.5313 16.2945 39.3502 15.9722 39.0278C15.6498 38.7055 15.4688 38.2683 15.4688 37.8125C15.4688 37.3567 15.6498 36.9195 15.9722 36.5972C16.2945 36.2748 16.7317 36.0938 17.1875 36.0938H18.7859C19.6366 36.0934 20.474 36.3036 21.2238 36.7054C21.9735 37.1073 22.6121 37.6883 23.0828 38.3969L27.5 45.0313L32.9484 36.8672C33.2125 36.5161 33.601 36.2794 34.0342 36.2058C34.4673 36.1323 34.9122 36.2274 35.2774 36.4716C35.6426 36.7158 35.9004 37.0906 35.9979 37.519C36.0954 37.9474 36.0251 38.3968 35.8016 38.775L28.9266 49.0875C28.7689 49.3208 28.5564 49.5117 28.3076 49.6436C28.0589 49.7754 27.7815 49.8442 27.5 49.8438ZM46.4062 39.5313H42.9688C42.5129 39.5313 42.0757 39.3502 41.7534 39.0278C41.4311 38.7055 41.25 38.2683 41.25 37.8125C41.25 37.3567 41.4311 36.9195 41.7534 36.5972C42.0757 36.2748 42.5129 36.0938 42.9688 36.0938H46.4062C46.8621 36.0938 47.2993 35.9127 47.6216 35.5903C47.9439 35.268 48.125 34.8308 48.125 34.375V10.3125C48.125 9.85666 47.9439 9.41949 47.6216 9.09716C47.2993 8.77483 46.8621 8.59375 46.4062 8.59375H8.59375C8.13791 8.59375 7.70074 8.77483 7.37841 9.09716C7.05608 9.41949 6.875 9.85666 6.875 10.3125V15.4688C6.875 15.9246 6.69392 16.3618 6.37159 16.6841C6.04926 17.0064 5.61209 17.1875 5.15625 17.1875C4.70041 17.1875 4.26324 17.0064 3.94091 16.6841C3.61858 16.3618 3.4375 15.9246 3.4375 15.4688V10.3125C3.4375 8.94498 3.98075 7.63347 4.94773 6.66648C5.91472 5.6995 7.22623 5.15625 8.59375 5.15625H46.4062C47.7738 5.15625 49.0853 5.6995 50.0523 6.66648C51.0193 7.63347 51.5625 8.94498 51.5625 10.3125V34.375C51.5625 35.7425 51.0193 37.054 50.0523 38.021C49.0853 38.988 47.7738 39.5313 46.4062 39.5313Z" fill="#414955"/>
<path d="M34.375 18.9063C33.6951 18.9063 33.0305 18.7046 32.4652 18.3269C31.8999 17.9492 31.4593 17.4123 31.1992 16.7842C30.939 16.1561 30.8709 15.4649 31.0036 14.7981C31.1362 14.1313 31.4636 13.5188 31.9443 13.0381C32.4251 12.5573 33.0376 12.2299 33.7044 12.0973C34.3712 11.9647 35.0624 12.0327 35.6905 12.2929C36.3186 12.5531 36.8555 12.9937 37.2332 13.559C37.6109 14.1243 37.8125 14.7889 37.8125 15.4688C37.8125 16.3804 37.4503 17.2548 36.8057 17.8994C36.161 18.5441 35.2867 18.9063 34.375 18.9063Z" fill="#414955"/>
<path d="M20.625 18.9063C19.9451 18.9063 19.2805 18.7046 18.7152 18.3269C18.1499 17.9492 17.7093 17.4123 17.4492 16.7842C17.189 16.1561 17.1209 15.4649 17.2536 14.7981C17.3862 14.1313 17.7136 13.5188 18.1943 13.0381C18.6751 12.5573 19.2876 12.2299 19.9544 12.0973C20.6212 11.9647 21.3124 12.0327 21.9405 12.2929C22.5686 12.5531 23.1055 12.9937 23.4832 13.559C23.8609 14.1243 24.0625 14.7889 24.0625 15.4688C24.0625 16.3804 23.7003 17.2548 23.0557 17.8994C22.411 18.5441 21.5367 18.9063 20.625 18.9063Z" fill="#414955"/>
<path d="M36.0938 25.7812C36.0938 29.5797 32.2437 32.6562 27.5 32.6562C22.7563 32.6562 18.9062 29.5797 18.9062 25.7812V24.0625H36.0938V25.7812Z" fill="#F7F7F5"/>
<path d="M27.5 34.375C21.8109 34.375 17.1875 30.525 17.1875 25.7812V24.0625C17.1875 23.6067 17.3686 23.1695 17.6909 22.8472C18.0132 22.5248 18.4504 22.3438 18.9062 22.3438H36.0938C36.5496 22.3438 36.9868 22.5248 37.3091 22.8472C37.6314 23.1695 37.8125 23.6067 37.8125 24.0625V25.7812C37.8125 30.525 33.1891 34.375 27.5 34.375ZM20.625 25.7812C20.625 28.6172 23.7016 30.9375 27.5 30.9375C31.2984 30.9375 34.375 28.6172 34.375 25.7812H20.625Z" fill="#414955"/>
<path d="M13.75 31.7969C13.7502 30.8063 13.4082 29.8461 12.7817 29.0788C12.1553 28.3114 11.283 27.784 10.3125 27.5859V24.0625C10.3125 22.695 9.76925 21.3835 8.80227 20.4165C7.83529 19.4495 6.52377 18.9062 5.15625 18.9062C3.78873 18.9062 2.47722 19.4495 1.51023 20.4165C0.543246 21.3835 -7.45058e-09 22.695 -7.45058e-09 24.0625V36.0938C-0.00829366 36.191 -0.00829366 36.2887 -7.45058e-09 36.3859C-0.0126953 36.5748 -0.0126953 36.7643 -7.45058e-09 36.9531C-7.45058e-09 37.5174 0.111142 38.0761 0.32708 38.5975C0.543018 39.1188 0.859524 39.5925 1.25853 39.9915C1.65753 40.3905 2.13121 40.707 2.65253 40.9229C3.17385 41.1389 3.7326 41.25 4.29688 41.25H9.45313C10.0174 41.25 10.5761 41.1389 11.0975 40.9229C11.6188 40.707 12.0925 40.3905 12.4915 39.9915C12.8905 39.5925 13.207 39.1188 13.4229 38.5975C13.6389 38.0761 13.75 37.5174 13.75 36.9531C13.7476 36.021 13.4397 35.1154 12.8734 34.375C13.4397 33.6346 13.7476 32.729 13.75 31.7969ZM3.4375 31.7969C3.4375 31.569 3.52804 31.3504 3.68921 31.1892C3.85037 31.028 4.06895 30.9375 4.29688 30.9375H9.45313C9.68105 30.9375 9.89963 31.028 10.0608 31.1892C10.222 31.3504 10.3125 31.569 10.3125 31.7969C10.3125 32.0248 10.222 32.2434 10.0608 32.4045C9.89963 32.5657 9.68105 32.6562 9.45313 32.6562H4.29688C4.06895 32.6562 3.85037 32.5657 3.68921 32.4045C3.52804 32.2434 3.4375 32.0248 3.4375 31.7969ZM5.15625 22.3438C5.61209 22.3438 6.04926 22.5248 6.37159 22.8472C6.69392 23.1695 6.875 23.6067 6.875 24.0625V27.5H4.29688C4.00826 27.4997 3.72035 27.5285 3.4375 27.5859V24.0625C3.4375 23.6067 3.61858 23.1695 3.94091 22.8472C4.26324 22.5248 4.70041 22.3438 5.15625 22.3438ZM9.45313 37.8125H4.29688C4.06895 37.8125 3.85037 37.722 3.68921 37.5608C3.52804 37.3996 3.4375 37.181 3.4375 36.9531C3.4375 36.7252 3.52804 36.5066 3.68921 36.3455C3.85037 36.1843 4.06895 36.0938 4.29688 36.0938H9.45313C9.68105 36.0938 9.89963 36.1843 10.0608 36.3455C10.222 36.5066 10.3125 36.7252 10.3125 36.9531C10.3125 37.181 10.222 37.3996 10.0608 37.5608C9.89963 37.722 9.68105 37.8125 9.45313 37.8125Z" fill="#414955"/>
</g>
<defs>
<clipPath id="clip0_1_34">
<rect width="55" height="55" fill="white"/>
</clipPath>
</defs>
</svg>
