<svg width="55" height="55" viewBox="0 0 55 55" fill="none" xmlns="http://www.w3.org/2000/svg">
<path d="M36.7984 44.4984L34.4953 47.9359C34.1049 48.5245 33.5749 49.0072 32.9527 49.3412C32.3304 49.6752 31.6352 49.8499 30.9289 49.8499C30.2227 49.8499 29.5274 49.6752 28.9052 49.3412C28.2828 49.0072 27.7529 48.5245 27.3625 47.9359C24.9563 44.2406 24.3547 43.0031 22.2063 43.0031H12.0313C11.1195 43.0031 10.2452 42.6409 9.60053 41.9963C8.95592 41.3517 8.59375 40.4773 8.59375 39.5656V15.4688C8.59375 14.557 8.95592 13.6827 9.60053 13.038C10.2452 12.3934 11.1195 12.0312 12.0313 12.0312H49.8438C50.7555 12.0312 51.6298 12.3934 52.2744 13.038C52.9191 13.6827 53.2813 14.557 53.2813 15.4688V39.5313C53.2813 40.443 52.9191 41.3173 52.2744 41.9619C51.6298 42.6066 50.7555 42.9688 49.8438 42.9688C39.1875 42.9688 38.1046 42.5219 36.7984 44.4984Z" fill="#FFF27B"/>
<path d="M25.7813 49.8438C25.4982 49.8423 25.2198 49.7709 24.9709 49.6359C24.722 49.5011 24.5104 49.3068 24.3547 49.0703L18.4937 40.2875C18.3361 40.0542 18.1235 39.8633 17.8748 39.7315C17.626 39.5995 17.3487 39.5308 17.0672 39.5313H6.875C5.50748 39.5313 4.19597 38.988 3.22898 38.021C2.26199 37.0541 1.71875 35.7425 1.71875 34.375V10.3125C1.71875 8.94498 2.26199 7.63347 3.22898 6.66648C4.19597 5.69949 5.50748 5.15625 6.875 5.15625H44.6875C46.055 5.15625 47.3666 5.69949 48.3335 6.66648C49.3005 7.63347 49.8438 8.94498 49.8438 10.3125V34.375C49.8438 35.7425 49.3005 37.0541 48.3335 38.021C47.3666 38.988 46.055 39.5313 44.6875 39.5313H41.25C40.7941 39.5313 40.357 39.3502 40.0347 39.0278C39.7123 38.7055 39.5313 38.2684 39.5313 37.8125C39.5313 37.3566 39.7123 36.9195 40.0347 36.5972C40.357 36.2748 40.7941 36.0938 41.25 36.0938H44.6875C45.1434 36.0938 45.5805 35.9127 45.9028 35.5903C46.2252 35.268 46.4063 34.8309 46.4063 34.375V10.3125C46.4063 9.85664 46.2252 9.41948 45.9028 9.09717C45.5805 8.77483 45.1434 8.59375 44.6875 8.59375H6.875C6.41916 8.59375 5.98199 8.77483 5.65966 9.09717C5.33733 9.41948 5.15625 9.85664 5.15625 10.3125V34.375C5.15625 34.8309 5.33733 35.268 5.65966 35.5903C5.98199 35.9127 6.41916 36.0938 6.875 36.0938H17.0672C17.9178 36.0935 18.7553 36.3036 19.505 36.7054C20.2548 37.1072 20.8934 37.6884 21.3641 38.3969L25.7813 45.0313L31.2297 36.8672C31.4937 36.5161 31.8823 36.2795 32.3154 36.2059C32.7486 36.1323 33.1934 36.2273 33.5586 36.4716C33.9239 36.7158 34.1817 37.0905 34.2792 37.519C34.3767 37.9473 34.3064 38.3968 34.0828 38.775L27.2078 49.0875C27.0502 49.3208 26.8376 49.5117 26.5888 49.6436C26.3401 49.7755 26.0628 49.8442 25.7813 49.8438Z" fill="#414955"/>
<path d="M17.1875 17.4453C16.7316 17.4453 16.2945 17.2642 15.9722 16.9419C15.6498 16.6195 15.4688 16.1824 15.4688 15.7265C15.5034 15.2001 15.6426 14.6857 15.8784 14.2137C16.1142 13.7416 16.4416 13.3212 16.8416 12.9772C17.2418 12.6331 17.7064 12.3723 18.2084 12.2098C18.7105 12.0474 19.2398 11.9867 19.7656 12.0313C20.2887 11.9866 20.8155 12.0462 21.3153 12.2064C21.8153 12.3668 22.2784 12.6246 22.6781 12.9651C23.0776 13.3055 23.4058 13.7219 23.6434 14.1899C23.8811 14.6581 24.0235 15.1686 24.0625 15.6921C24.0625 16.148 23.8815 16.5852 23.5591 16.9075C23.2368 17.2298 22.7996 17.4109 22.3438 17.4109C21.8879 17.4109 21.4507 17.2298 21.1284 16.9075C20.806 16.5852 20.625 16.148 20.625 15.6921C20.3608 15.5492 20.0659 15.4726 19.7656 15.4687C19.6059 15.4555 19.4453 15.4762 19.2942 15.5295C19.1431 15.5829 19.0051 15.6676 18.889 15.7781C18.8757 16.222 18.6912 16.6435 18.3739 16.9543C18.0568 17.2651 17.6315 17.441 17.1875 17.4453Z" fill="#414955"/>
<path d="M29.2188 17.4453C28.7629 17.4453 28.3257 17.2642 28.0034 16.9419C27.681 16.6195 27.5 16.1824 27.5 15.7265C27.5346 15.2001 27.6739 14.6857 27.9097 14.2137C28.1454 13.7416 28.4729 13.3212 28.8729 12.9772C29.273 12.6331 29.7377 12.3723 30.2396 12.2098C30.7417 12.0474 31.2711 11.9867 31.7969 12.0313C32.3199 11.9866 32.8467 12.0462 33.3466 12.2064C33.8465 12.3668 34.3096 12.6246 34.7093 12.9651C35.1089 13.3055 35.4371 13.7219 35.6747 14.1899C35.9123 14.6581 36.0547 15.1686 36.0938 15.6921C36.0938 16.148 35.9127 16.5852 35.5903 16.9075C35.268 17.2298 34.8309 17.4109 34.375 17.4109C33.9191 17.4109 33.482 17.2298 33.1597 16.9075C32.8373 16.5852 32.6563 16.148 32.6563 15.6921C32.3943 15.5437 32.098 15.4666 31.7969 15.4687C31.6372 15.4555 31.4765 15.4762 31.3254 15.5295C31.1744 15.5829 31.0363 15.6676 30.9203 15.7781C30.907 16.222 30.7225 16.6435 30.4052 16.9543C30.088 17.2651 29.6628 17.441 29.2188 17.4453Z" fill="#414955"/>
<path d="M34.2031 24.2344L36.2829 26.5891C36.8341 27.2684 37.0931 28.1388 37.0029 29.009C36.9126 29.8792 36.4806 30.678 35.8016 31.2297C35.183 31.8458 34.3457 32.1917 33.4726 32.1917C32.5997 32.1917 31.7622 31.8458 31.1437 31.2297L29.2188 28.9438" fill="#F58987"/>
<path d="M33.4297 33.8594C32.7596 33.8658 32.096 33.7296 31.4826 33.46C30.8692 33.1903 30.3202 32.7933 29.8719 32.2954L27.9297 30.0954C26.3485 28.5141 27.3625 28.3766 28.0672 27.6719C28.407 27.3694 28.8531 27.2139 29.3073 27.2398C29.7616 27.2655 30.1872 27.4704 30.4906 27.8094L32.4329 30.0094C32.736 30.3513 33.1625 30.5587 33.6186 30.5861C34.0747 30.6136 34.5229 30.4586 34.8649 30.1555C35.2067 29.8524 35.4142 29.4258 35.4416 28.9697C35.4689 28.5137 35.3141 28.0653 35.011 27.7235L32.9312 25.3688C32.767 25.2031 32.6382 25.0058 32.5527 24.7887C32.4671 24.5716 32.4266 24.3394 32.4338 24.1062C32.4408 23.873 32.4954 23.6438 32.5939 23.4323C32.6925 23.2208 32.8331 23.0317 33.0071 22.8763C33.1812 22.721 33.3851 22.6027 33.6063 22.5286C33.8276 22.4546 34.0616 22.4264 34.2941 22.4457C34.5265 22.465 34.7527 22.5315 34.9586 22.641C35.1646 22.7506 35.3462 22.9009 35.4922 23.0829L37.5719 25.4375C38.4254 26.4568 38.8396 27.7732 38.7237 29.0976C38.6076 30.422 37.9709 31.6462 36.9531 32.5016C35.9847 33.3705 34.7308 33.8537 33.4297 33.8594Z" fill="#414955"/>
<path d="M25.7813 29.5109C20.0922 29.5109 15.4688 25.6609 15.4688 20.9171C15.4688 20.4613 15.6498 20.0241 15.9722 19.7018C16.2945 19.3795 16.7316 19.1984 17.1875 19.1984C17.6434 19.1984 18.0805 19.3795 18.4028 19.7018C18.7252 20.0241 18.9063 20.4613 18.9063 20.9171C18.9063 23.7531 21.9828 26.0734 25.7813 26.0734C29.5797 26.0734 32.6563 23.7531 32.6563 20.9171C32.6563 20.4613 32.8373 20.0241 33.1597 19.7018C33.482 19.3795 33.9191 19.1984 34.375 19.1984C34.8309 19.1984 35.268 19.3795 35.5903 19.7018C35.9127 20.0241 36.0938 20.4613 36.0938 20.9171C36.0938 25.6609 31.4703 29.5109 25.7813 29.5109Z" fill="#414955"/>
</svg>
