<svg width="55" height="55" viewBox="0 0 55 55" fill="none" xmlns="http://www.w3.org/2000/svg">
<path d="M36.7984 44.4984L34.4953 47.9359C34.1049 48.5245 33.575 49.0072 32.9527 49.3412C32.3304 49.6752 31.6351 49.8499 30.9289 49.8499C30.2227 49.8499 29.5274 49.6752 28.9051 49.3412C28.2829 49.0072 27.7529 48.5245 27.3625 47.9359C24.9563 44.2406 24.3547 43.0031 22.2063 43.0031H12.0312C11.1196 43.0031 10.2452 42.641 9.60057 41.9963C8.95591 41.3516 8.59375 40.4773 8.59375 39.5656V15.4687C8.59375 14.5571 8.95591 13.6827 9.60057 13.0381C10.2452 12.3934 11.1196 12.0313 12.0312 12.0312H49.8438C50.7554 12.0313 51.6298 12.3934 52.2744 13.0381C52.9191 13.6827 53.2812 14.5571 53.2812 15.4687V39.5312C53.2812 40.4429 52.9191 41.3173 52.2744 41.9619C51.6298 42.6066 50.7554 42.9687 49.8438 42.9687C39.1875 42.9687 38.1047 42.5219 36.7984 44.4984Z" fill="#FFF27B"/>
<path d="M25.7812 49.8438C25.4982 49.8423 25.2198 49.7709 24.9709 49.636C24.7221 49.5011 24.5104 49.3067 24.3547 49.0703L18.4938 40.2875C18.3361 40.0542 18.1235 39.8633 17.8748 39.7314C17.6261 39.5996 17.3487 39.5308 17.0672 39.5312H6.875C5.50748 39.5312 4.19597 38.988 3.22898 38.021C2.262 37.054 1.71875 35.7425 1.71875 34.375V10.3125C1.71875 8.94498 2.262 7.63347 3.22898 6.66648C4.19597 5.6995 5.50748 5.15625 6.875 5.15625H44.6875C46.055 5.15625 47.3665 5.6995 48.3335 6.66648C49.3005 7.63347 49.8437 8.94498 49.8438 10.3125V34.375C49.8437 35.7425 49.3005 37.054 48.3335 38.021C47.3665 38.988 46.055 39.5312 44.6875 39.5312H41.25C40.7942 39.5312 40.357 39.3502 40.0347 39.0278C39.7123 38.7055 39.5312 38.2683 39.5312 37.8125C39.5312 37.3567 39.7123 36.9195 40.0347 36.5972C40.357 36.2748 40.7942 36.0938 41.25 36.0938H44.6875C45.1433 36.0938 45.5805 35.9127 45.9028 35.5903C46.2252 35.268 46.4062 34.8308 46.4062 34.375V10.3125C46.4062 9.85666 46.2252 9.41949 45.9028 9.09716C45.5805 8.77483 45.1433 8.59375 44.6875 8.59375H6.875C6.41916 8.59375 5.98199 8.77483 5.65966 9.09716C5.33733 9.41949 5.15625 9.85666 5.15625 10.3125V34.375C5.15625 34.8308 5.33733 35.268 5.65966 35.5903C5.98199 35.9127 6.41916 36.0938 6.875 36.0938H17.0672C17.9178 36.0934 18.7553 36.3036 19.505 36.7054C20.2547 37.1073 20.8934 37.6883 21.3641 38.3969L25.7812 45.0313L31.2297 36.8672C31.4938 36.5161 31.8823 36.2794 32.3154 36.2058C32.7486 36.1323 33.1934 36.2274 33.5586 36.4716C33.9239 36.7158 34.1817 37.0906 34.2792 37.519C34.3767 37.9473 34.3064 38.3968 34.0828 38.775L27.2078 49.0875C27.0502 49.3208 26.8376 49.5117 26.5889 49.6436C26.3401 49.7754 26.0628 49.8442 25.7812 49.8438Z" fill="#414955"/>
<path d="M32.6562 18.9063C31.9764 18.9063 31.3118 18.7046 30.7465 18.3269C30.1812 17.9492 29.7406 17.4123 29.4804 16.7842C29.2202 16.1561 29.1522 15.4649 29.2848 14.7981C29.4174 14.1313 29.7448 13.5188 30.2256 13.0381C30.7063 12.5573 31.3188 12.2299 31.9856 12.0973C32.6524 11.9647 33.3436 12.0327 33.9717 12.2929C34.5998 12.5531 35.1367 12.9937 35.5144 13.559C35.8921 14.1243 36.0938 14.7889 36.0938 15.4688C36.0938 16.3804 35.7316 17.2548 35.0869 17.8994C34.4423 18.5441 33.5679 18.9063 32.6562 18.9063Z" fill="#414955"/>
<path d="M18.9063 18.9063C18.2264 18.9063 17.5618 18.7046 16.9965 18.3269C16.4312 17.9492 15.9906 17.4123 15.7304 16.7842C15.4702 16.1561 15.4022 15.4649 15.5348 14.7981C15.6674 14.1313 15.9948 13.5188 16.4756 13.0381C16.9563 12.5573 17.5688 12.2299 18.2356 12.0973C18.9024 11.9647 19.5936 12.0327 20.2217 12.2929C20.8498 12.5531 21.3867 12.9937 21.7644 13.559C22.1421 14.1243 22.3438 14.7889 22.3438 15.4688C22.3438 16.3804 21.9816 17.2548 21.3369 17.8994C20.6923 18.5441 19.8179 18.9063 18.9063 18.9063Z" fill="#414955"/>
<path d="M25.7812 32.6562C20.0922 32.6562 15.4688 28.8062 15.4688 24.0625C15.4688 23.6067 15.6498 23.1695 15.9722 22.8472C16.2945 22.5248 16.7317 22.3438 17.1875 22.3438C17.6433 22.3438 18.0805 22.5248 18.4028 22.8472C18.7252 23.1695 18.9062 23.6067 18.9062 24.0625C18.9062 26.8984 21.9828 29.2188 25.7812 29.2188C29.5797 29.2188 32.6562 26.8984 32.6562 24.0625C32.6562 23.6067 32.8373 23.1695 33.1597 22.8472C33.482 22.5248 33.9192 22.3438 34.375 22.3438C34.8308 22.3438 35.268 22.5248 35.5903 22.8472C35.9127 23.1695 36.0938 23.6067 36.0938 24.0625C36.0938 28.8062 31.4703 32.6562 25.7812 32.6562Z" fill="#414955"/>
</svg>
