<svg width="55" height="55" viewBox="0 0 55 55" fill="none" xmlns="http://www.w3.org/2000/svg">
<path d="M36.7984 44.4984L34.4953 47.9359C34.1049 48.5245 33.575 49.0072 32.9527 49.3412C32.3304 49.6752 31.6351 49.8499 30.9289 49.8499C30.2227 49.8499 29.5274 49.6752 28.9051 49.3412C28.2829 49.0072 27.7529 48.5245 27.3625 47.9359C24.9563 44.2406 24.3547 43.0031 22.2063 43.0031H12.0312C11.1196 43.0031 10.2452 42.641 9.60057 41.9963C8.95591 41.3516 8.59375 40.4773 8.59375 39.5656V15.4687C8.59375 14.5571 8.95591 13.6827 9.60057 13.0381C10.2452 12.3934 11.1196 12.0313 12.0312 12.0312H49.8438C50.7554 12.0313 51.6298 12.3934 52.2744 13.0381C52.9191 13.6827 53.2812 14.5571 53.2812 15.4687V39.5312C53.2812 40.4429 52.9191 41.3173 52.2744 41.9619C51.6298 42.6066 50.7554 42.9687 49.8438 42.9687C39.1875 42.9687 38.1047 42.5219 36.7984 44.4984Z" fill="#FFF27B"/>
<path d="M25.7812 49.8438C25.4982 49.8423 25.2198 49.7709 24.9709 49.636C24.7221 49.5011 24.5104 49.3067 24.3547 49.0703L18.4938 40.2875C18.3361 40.0542 18.1235 39.8633 17.8748 39.7314C17.6261 39.5996 17.3487 39.5308 17.0672 39.5312H6.875C5.50748 39.5312 4.19597 38.988 3.22898 38.021C2.262 37.054 1.71875 35.7425 1.71875 34.375V10.3125C1.71875 8.94498 2.262 7.63347 3.22898 6.66648C4.19597 5.6995 5.50748 5.15625 6.875 5.15625H44.6875C46.055 5.15625 47.3665 5.6995 48.3335 6.66648C49.3005 7.63347 49.8437 8.94498 49.8438 10.3125V34.375C49.8437 35.7425 49.3005 37.054 48.3335 38.021C47.3665 38.988 46.055 39.5312 44.6875 39.5312H41.25C40.7942 39.5312 40.357 39.3502 40.0347 39.0278C39.7123 38.7055 39.5312 38.2683 39.5312 37.8125C39.5312 37.3567 39.7123 36.9195 40.0347 36.5972C40.357 36.2748 40.7942 36.0938 41.25 36.0938H44.6875C45.1433 36.0938 45.5805 35.9127 45.9028 35.5903C46.2252 35.268 46.4062 34.8308 46.4062 34.375V10.3125C46.4062 9.85666 46.2252 9.41949 45.9028 9.09716C45.5805 8.77483 45.1433 8.59375 44.6875 8.59375H6.875C6.41916 8.59375 5.98199 8.77483 5.65966 9.09716C5.33733 9.41949 5.15625 9.85666 5.15625 10.3125V34.375C5.15625 34.8308 5.33733 35.268 5.65966 35.5903C5.98199 35.9127 6.41916 36.0938 6.875 36.0938H17.0672C17.9178 36.0934 18.7553 36.3036 19.505 36.7054C20.2547 37.1073 20.8934 37.6883 21.3641 38.3969L25.7812 45.0313L31.2297 36.8672C31.4938 36.5161 31.8823 36.2794 32.3154 36.2058C32.7486 36.1323 33.1934 36.2274 33.5586 36.4716C33.9239 36.7158 34.1817 37.0906 34.2792 37.519C34.3767 37.9473 34.3064 38.3968 34.0828 38.775L27.2078 49.0875C27.0502 49.3208 26.8376 49.5117 26.5889 49.6436C26.3401 49.7754 26.0628 49.8442 25.7812 49.8438Z" fill="#414955"/>
<path d="M17.1875 17.4453C16.7317 17.4453 16.2945 17.2642 15.9722 16.9419C15.6498 16.6195 15.4688 16.1824 15.4688 15.7265C15.5034 15.2 15.6427 14.6857 15.8784 14.2136C16.1142 13.7415 16.4416 13.3212 16.8417 12.9771C17.2418 12.6331 17.7064 12.3722 18.2084 12.2098C18.7105 12.0474 19.2398 11.9867 19.7656 12.0312C20.2887 11.9866 20.8154 12.0461 21.3154 12.2064C21.8153 12.3667 22.2784 12.6245 22.678 12.965C23.0776 13.3055 23.4058 13.7218 23.6434 14.1899C23.881 14.658 24.0235 15.1686 24.0625 15.6922C24.0625 16.148 23.8814 16.5852 23.5591 16.9075C23.2368 17.2298 22.7996 17.4109 22.3438 17.4109C21.8879 17.4109 21.4507 17.2298 21.1284 16.9075C20.8061 16.5852 20.625 16.148 20.625 15.6922C20.3608 15.5493 20.0659 15.4726 19.7656 15.4687C19.606 15.4555 19.4453 15.4762 19.2942 15.5295C19.1431 15.5828 19.005 15.6675 18.8891 15.7781C18.8758 16.222 18.6912 16.6435 18.374 16.9543C18.0568 17.2651 17.6316 17.441 17.1875 17.4453Z" fill="#414955"/>
<path d="M29.2188 17.4453C28.7629 17.4453 28.3257 17.2642 28.0034 16.9419C27.6811 16.6195 27.5 16.1824 27.5 15.7265C27.5347 15.2 27.6739 14.6857 27.9097 14.2136C28.1454 13.7415 28.4729 13.3212 28.8729 12.9771C29.273 12.6331 29.7376 12.3722 30.2397 12.2098C30.7417 12.0474 31.2711 11.9867 31.7969 12.0312C32.32 11.9866 32.8467 12.0461 33.3466 12.2064C33.8465 12.3667 34.3097 12.6245 34.7093 12.965C35.1089 13.3055 35.437 13.7218 35.6747 14.1899C35.9123 14.658 36.0547 15.1686 36.0938 15.6922C36.0938 16.148 35.9127 16.5852 35.5903 16.9075C35.268 17.2298 34.8308 17.4109 34.375 17.4109C33.9192 17.4109 33.482 17.2298 33.1597 16.9075C32.8373 16.5852 32.6562 16.148 32.6562 15.6922C32.3943 15.5437 32.098 15.4666 31.7969 15.4687C31.6372 15.4555 31.4765 15.4762 31.3254 15.5295C31.1744 15.5828 31.0363 15.6675 30.9203 15.7781C30.907 16.222 30.7224 16.6435 30.4052 16.9543C30.088 17.2651 29.6628 17.441 29.2188 17.4453Z" fill="#414955"/>
<path d="M34.2031 24.2344L36.2828 26.5891C36.8341 27.2684 37.0931 28.1388 37.0029 29.009C36.9126 29.8792 36.4805 30.678 35.8016 31.2297C35.1831 31.8458 34.3456 32.1917 33.4727 32.1917C32.5997 32.1917 31.7622 31.8458 31.1438 31.2297L29.2188 28.9438" fill="#F58987"/>
<path d="M33.4297 33.8594C32.7597 33.8658 32.096 33.7296 31.4826 33.46C30.8692 33.1903 30.3202 32.7933 29.8719 32.2953L27.9297 30.0953C26.3484 28.5141 27.3625 28.3766 28.0672 27.6719C28.4071 27.3694 28.853 27.2139 29.3073 27.2397C29.7616 27.2655 30.1871 27.4704 30.4906 27.8094L32.4328 30.0094C32.7359 30.3513 33.1625 30.5587 33.6186 30.5861C34.0747 30.6135 34.523 30.4586 34.8648 30.1555C35.2067 29.8524 35.4142 29.4258 35.4416 28.9697C35.469 28.5136 35.3141 28.0653 35.0109 27.7235L32.9312 25.3688C32.767 25.2031 32.6381 25.0057 32.5526 24.7887C32.4671 24.5716 32.4266 24.3394 32.4337 24.1063C32.4408 23.8731 32.4953 23.6438 32.5939 23.4323C32.6925 23.2209 32.8331 23.0317 33.0071 22.8763C33.1812 22.721 33.385 22.6027 33.6063 22.5287C33.8275 22.4546 34.0615 22.4264 34.294 22.4457C34.5265 22.465 34.7527 22.5315 34.9586 22.641C35.1646 22.7506 35.3462 22.9009 35.4922 23.0828L37.5719 25.4375C38.4254 26.4568 38.8396 27.7731 38.7236 29.0975C38.6076 30.4219 37.9709 31.6462 36.9531 32.5016C35.9846 33.3705 34.7308 33.8537 33.4297 33.8594Z" fill="#414955"/>
<path d="M25.7812 29.5109C20.0922 29.5109 15.4688 25.6609 15.4688 20.9172C15.4688 20.4613 15.6498 20.0242 15.9722 19.7018C16.2945 19.3795 16.7317 19.1984 17.1875 19.1984C17.6433 19.1984 18.0805 19.3795 18.4028 19.7018C18.7252 20.0242 18.9062 20.4613 18.9062 20.9172C18.9062 23.7531 21.9828 26.0734 25.7812 26.0734C29.5797 26.0734 32.6562 23.7531 32.6562 20.9172C32.6562 20.4613 32.8373 20.0242 33.1597 19.7018C33.482 19.3795 33.9192 19.1984 34.375 19.1984C34.8308 19.1984 35.268 19.3795 35.5903 19.7018C35.9127 20.0242 36.0938 20.4613 36.0938 20.9172C36.0938 25.6609 31.4703 29.5109 25.7812 29.5109Z" fill="#414955"/>
</svg>
