<svg width="24" height="24" viewBox="0 0 24 24" fill="none" xmlns="http://www.w3.org/2000/svg">
<path d="M10.3125 4.125C10.3125 3.50368 10.8162 3 11.4375 3H12.5625C13.1838 3 13.6875 3.50368 13.6875 4.125L13.8226 5.07038C13.9435 5.91684 14.9272 6.32431 15.6112 5.81128L16.3752 5.23829C16.8146 4.79895 17.5269 4.79895 17.9662 5.23829L18.7617 6.03379C19.201 6.47313 19.201 7.18544 18.7617 7.62478L18.1887 8.38875C17.6757 9.0728 18.0832 10.0565 18.9296 10.1774L19.875 10.3125C20.4963 10.3125 21 10.8162 21 11.4375V12.5625C21 13.1838 20.4963 13.6875 19.875 13.6875L18.9296 13.8226C18.0832 13.9435 17.6757 14.9272 18.1887 15.6112L18.7617 16.3752C19.201 16.8146 19.201 17.5269 18.7617 17.9662L17.9662 18.7617C17.5269 19.201 16.8146 19.201 16.3752 18.7617L15.6112 18.1887C14.9272 17.6757 13.9435 18.0832 13.8226 18.9296L13.6875 19.875C13.6875 20.4963 13.1838 21 12.5625 21H11.4375C10.8162 21 10.3125 20.4963 10.3125 19.875L10.1774 18.9296C10.0565 18.0832 9.0728 17.6757 8.38875 18.1887L7.62478 18.7617C7.18544 19.201 6.47313 19.201 6.03379 18.7617L5.23829 17.9662C4.79895 17.5269 4.79895 16.8146 5.23829 16.3752L5.81128 15.6112C6.32431 14.9272 5.91685 13.9435 5.07038 13.8226L4.125 13.6875C3.50368 13.6875 3 13.1838 3 12.5625V11.4375C3 10.8162 3.50368 10.3125 4.125 10.3125L5.07037 10.1774C5.91684 10.0565 6.32431 9.0728 5.81127 8.38875L5.23829 7.62478C4.79895 7.18544 4.79895 6.47313 5.23829 6.03379L6.03379 5.23829C6.47313 4.79895 7.18544 4.79895 7.62478 5.23829L8.38875 5.81128C9.0728 6.32431 10.0565 5.91684 10.1774 5.07038L10.3125 4.125Z" stroke="black" stroke-width="2" stroke-linecap="round" stroke-linejoin="round"/>
<circle cx="12" cy="12" r="2" stroke="black" stroke-width="2" stroke-linecap="round" stroke-linejoin="round"/>
</svg>
